<svg width="216" height="157" viewBox="0 0 216 157" fill="none" xmlns="http://www.w3.org/2000/svg">
<path d="M195.62 0H20.3782C9.12318 0 0 9.12318 0 20.3782V103.514C0 114.769 9.12318 123.892 20.3782 123.892H36.0852C36.5257 131.429 35.4472 142.638 29.155 156.972C49.4 147.633 61.0595 133.609 67.1495 123.892H195.622C206.877 123.892 216 114.769 216 103.514V20.3782C215.998 9.12318 206.875 0 195.62 0Z" fill="#60A8FF"/>
<path d="M120.864 39.6211H33.9457C31.5583 39.6211 29.6208 37.6852 29.6208 35.2962C29.6208 32.9073 31.5567 30.9713 33.9457 30.9713H120.864C123.253 30.9713 125.188 32.9073 125.188 35.2962C125.188 37.6852 123.253 39.6211 120.864 39.6211Z" fill="white"/>
<path d="M183.188 64.8095H32.2699C30.8074 64.8095 29.6208 63.6228 29.6208 62.1603C29.6208 60.6978 30.8074 59.5111 32.2699 59.5111H183.188C184.651 59.5111 185.837 60.6978 185.837 62.1603C185.837 63.6244 184.651 64.8095 183.188 64.8095Z" fill="#D2E6FF"/>
<path d="M183.188 79.5124H32.2699C30.8074 79.5124 29.6208 78.3273 29.6208 76.8632C29.6208 75.4007 30.8074 74.214 32.2699 74.214H183.188C184.651 74.214 185.837 75.4007 185.837 76.8632C185.837 78.3273 184.651 79.5124 183.188 79.5124Z" fill="#D2E6FF"/>
<path d="M150.267 95.1878H32.269C30.8065 95.1878 29.6198 94.0011 29.6198 92.5386C29.6198 91.0761 30.8065 89.8894 32.269 89.8894H150.267C151.729 89.8894 152.916 91.0761 152.916 92.5386C152.916 94.0027 151.731 95.1878 150.267 95.1878Z" fill="#D2E6FF"/>
<path d="M182.003 39.6211H140.54C138.153 39.6211 136.215 37.6852 136.215 35.2962C136.215 32.9073 138.151 30.9713 140.54 30.9713H182.003C184.391 30.9713 186.328 32.9073 186.328 35.2962C186.327 37.6852 184.391 39.6211 182.003 39.6211Z" fill="white"/>
</svg>
