<svg width="26" height="24" viewBox="0 0 26 24" fill="none" xmlns="http://www.w3.org/2000/svg">
<path d="M23.1298 1.00414H2.00985C1.45441 1.00414 1.00414 1.43223 1.00414 1.9603V22.0397C1.00414 22.5678 1.45441 22.9959 2.00985 22.9959H23.1298C23.6852 22.9959 24.1355 22.5678 24.1355 22.0397V1.9603C24.1355 1.43223 23.6852 1.00414 23.1298 1.00414Z" stroke="black" stroke-width="2" stroke-linecap="round" stroke-linejoin="round"/>
<path d="M11.5633 10.0876V17.7369" stroke="black" stroke-width="2" stroke-linecap="round" stroke-linejoin="round"/>
<path d="M7.54087 10.0876V17.7369" stroke="black" stroke-width="2" stroke-linecap="round" stroke-linejoin="round"/>
<path d="M11.5633 13.4342C11.5633 12.5466 11.9342 11.6954 12.5943 11.0678C13.2544 10.4402 14.1498 10.0876 15.0833 10.0876C16.0169 10.0876 16.9122 10.4402 17.5723 11.0678C18.2324 11.6954 18.6033 12.5466 18.6033 13.4342V17.7369" stroke="black" stroke-width="2" stroke-linecap="round" stroke-linejoin="round"/>
<path d="M7.54126 7.69724C8.37442 7.69724 9.04983 7.05511 9.04983 6.263C9.04983 5.47089 8.37442 4.82876 7.54126 4.82876C6.70811 4.82876 6.0327 5.47089 6.0327 6.263C6.0327 7.05511 6.70811 7.69724 7.54126 7.69724Z" fill="black"/>
</svg>
