<svg width="20" height="16" viewBox="0 0 20 16" fill="none" xmlns="http://www.w3.org/2000/svg">
<path fill-rule="evenodd" clip-rule="evenodd" d="M0.890022 8.4279C0.728993 8.12943 0.728993 7.76737 0.890022 7.46891C2.83058 3.8801 6.41529 0.76925 9.99999 0.76925C13.5847 0.76925 17.1694 3.8801 19.11 7.46993C19.271 7.7684 19.271 8.13046 19.11 8.42893C17.1694 12.0177 13.5847 15.1286 9.99999 15.1286C6.41529 15.1286 2.83058 12.0177 0.890022 8.4279Z" stroke="#828282" stroke-width="1.5" stroke-linecap="round" stroke-linejoin="round"/>
<path d="M12.1758 5.77315C13.3774 6.97479 13.3774 8.92304 12.1758 10.1247C10.9741 11.3263 9.02587 11.3263 7.82423 10.1247C6.62259 8.92304 6.62259 6.97479 7.82423 5.77315C9.02587 4.57151 10.9741 4.57151 12.1758 5.77315" stroke="#828282" stroke-width="1.4286" stroke-linecap="round" stroke-linejoin="round"/>
</svg>
