<svg width="25" height="25" viewBox="0 0 25 25" fill="none" xmlns="http://www.w3.org/2000/svg">
<path d="M23 1H2C1.44772 1 1 1.44772 1 2V23C1 23.5523 1.44772 24 2 24H23C23.5523 24 24 23.5523 24 23V2C24 1.44772 23.5523 1 23 1Z" stroke="black" stroke-width="2" stroke-linecap="round" stroke-linejoin="round"/>
<path d="M11.5 10.5V18.5" stroke="black" stroke-width="2" stroke-linecap="round" stroke-linejoin="round"/>
<path d="M7.5 10.5V18.5" stroke="black" stroke-width="2" stroke-linecap="round" stroke-linejoin="round"/>
<path d="M11.5 14C11.5 13.0717 11.8687 12.1815 12.5251 11.5251C13.1815 10.8687 14.0717 10.5 15 10.5C15.9283 10.5 16.8185 10.8687 17.4749 11.5251C18.1313 12.1815 18.5 13.0717 18.5 14V18.5" stroke="black" stroke-width="2" stroke-linecap="round" stroke-linejoin="round"/>
<path d="M7.5 8C8.32843 8 9 7.32843 9 6.5C9 5.67157 8.32843 5 7.5 5C6.67157 5 6 5.67157 6 6.5C6 7.32843 6.67157 8 7.5 8Z" fill="black"/>
</svg>
