<svg width="86" height="71" viewBox="0 0 86 71" fill="none" xmlns="http://www.w3.org/2000/svg">
<path d="M78.1276 50.8181H7.87243C3.52527 50.8181 0 47.2928 0 42.9457V7.87243C0 3.5237 3.52527 0 7.87243 0H78.1276C82.4747 0 86 3.5237 86 7.87243V42.9457C86 47.2928 82.4763 50.8181 78.1276 50.8181Z" fill="#60A8FF"/>
<path d="M43.0015 70.6893L54.1346 44.3025H31.8683L43.0015 70.6893Z" fill="#60A8FF"/>
<path d="M42.7339 16.6809H62.8448V19.6236L72.7042 13.9381L62.8448 8.25423V11.1969H42.7339V16.6809Z" fill="#223A7A"/>
<path d="M72.7042 28.2438H52.5933V25.3026L42.7339 30.9865L52.5933 36.6704V33.7293H72.7042V28.2438Z" fill="white"/>
<path d="M30.3919 33.4186L29.4346 33.7666C29.4346 33.7666 26.451 30.361 24.9017 26.6499C23.3524 22.9388 23.2988 18.4075 23.2988 18.4075L23.9979 18.1146L19.7452 7.93714C18.9863 8.52914 18.2652 9.29119 17.6811 10.2784C15.2737 14.3453 15.513 20.5866 17.933 26.683C20.3529 32.7794 22.943 38.2192 27.6649 41.639C30.4517 43.6575 32.8402 44.0102 34.695 43.7173L30.3919 33.4186Z" fill="#223A7A"/>
<path d="M33.4461 32.2215L32.1236 32.7017L36.477 43.1217C36.9682 42.9611 37.4091 42.7627 37.7933 42.5533C38.9174 41.9377 39.4103 40.5852 38.9379 39.3949L36.6644 33.6669C36.159 32.3932 34.7341 31.7539 33.4461 32.2215Z" fill="#223A7A"/>
<path d="M23.0708 6.15408C22.5355 6.34774 21.9529 6.60753 21.3672 6.95391L25.7097 17.3487L27.1723 16.7378C28.4398 16.2088 29.0538 14.7634 28.5547 13.4833L26.2717 7.62308C25.7742 6.35089 24.3556 5.69118 23.0708 6.15408Z" fill="#223A7A"/>
</svg>
