<svg width="28" height="24" viewBox="0 0 28 24" fill="none" xmlns="http://www.w3.org/2000/svg">
<path d="M12.3384 6.00033C12.3384 3.25039 14.6545 0.962935 17.4087 1.00043C18.3733 1.01155 19.3141 1.30058 20.118 1.83276C20.922 2.36495 21.5549 3.11765 21.9407 4.00037H26.36L22.3163 8.03779C22.0553 12.0934 20.2572 15.8976 17.2875 18.6769C14.3178 21.4562 10.3995 23.002 6.32917 23C2.323 23 1.32146 21.5 1.32146 21.5C1.32146 21.5 5.32763 20 7.33071 17.0001C7.33071 17.0001 -0.681622 13.0002 1.32146 2.00041C1.32146 2.00041 6.32917 7.00031 12.3384 8.00029V6.00033Z" stroke="black" stroke-width="2" stroke-linecap="round" stroke-linejoin="round"/>
</svg>
