<svg width="259" height="368" viewBox="0 0 259 368" fill="none" xmlns="http://www.w3.org/2000/svg">
<path d="M111.381 96.8675C111.381 96.8675 107.159 132.261 105.536 135.183C103.914 138.105 103.914 138.105 103.914 138.105L95.795 143.625C95.795 143.625 111.381 165.705 130.539 169.277C149.697 172.849 148.072 161.485 148.072 161.485L145.15 155.316L149.047 121.547C149.047 121.547 114.303 105.636 111.381 96.8675Z" fill="#FF9D8C"/>
<path d="M85.7287 146.548L98.3923 141.028C98.3923 141.028 106.509 154.342 125.342 162.134C144.175 169.926 144.5 165.381 145.475 162.134C146.449 158.887 145.15 155.315 145.15 155.315L146.544 143.946L154.075 146.457L180.218 357.932L113.005 361.18L85.7287 146.548Z" fill="white"/>
<path d="M147.749 144.166C147.749 144.166 152.294 154.665 156.516 179.343C160.738 204.02 164.633 245.583 165.607 274.157C166.582 302.731 167.23 367.997 167.23 367.997C167.23 367.997 251.004 367.997 251.979 367.997C252.953 367.997 258.798 335.851 258.798 335.851C258.798 335.851 221.782 304.138 219.832 298.943C218.533 295.479 219.183 231.296 213.663 201.747C208.143 172.199 200.999 166.246 186.063 158.887C170.626 151.28 147.749 144.166 147.749 144.166Z" fill="#223A7A"/>
<path d="M191.908 330.792C191.475 330.792 191.123 330.441 191.123 330.008C191.123 327.686 190.71 294.702 190.312 262.804C189.912 230.901 189.499 197.912 189.499 195.579C189.499 195.146 189.85 194.795 190.283 194.795C190.717 194.795 191.068 195.146 191.068 195.579C191.068 197.901 191.481 230.885 191.88 262.783C192.28 294.686 192.693 327.675 192.693 330.008C192.693 330.442 192.343 330.792 191.908 330.792Z" fill="#8593B6"/>
<path d="M23.0605 322.865L22.4107 368H121.122C121.122 368 125.344 329.684 123.72 326.112C122.097 322.54 23.0605 322.865 23.0605 322.865Z" fill="#223A7A"/>
<path d="M132.921 134.211C136.944 137.453 142.446 140.055 146.731 141.629L149.047 121.547C149.047 121.547 122.949 109.593 114.095 100.697C115.947 110.803 120.498 124.195 132.921 134.211Z" fill="#8E9BBB"/>
<path d="M179.572 30.9524C179.572 30.9524 186.391 42.6414 187.689 56.9293C188.988 71.2157 187.689 107.909 176 123.494C164.311 139.08 139.958 134.535 128.917 125.119C118.785 116.476 108.785 106.936 106.187 88.1026C103.59 69.2696 111.707 33.5514 134.762 26.0841C157.815 18.6137 179.572 30.9524 179.572 30.9524Z" fill="#FF9D8C"/>
<path d="M208.863 347.586C208.863 347.586 207.717 347.586 205.975 347.539C205.567 347.523 205.112 347.539 204.641 347.523C202.962 347.476 200.922 347.429 198.866 347.366C198.411 347.351 197.94 347.335 197.485 347.319C195.445 347.272 193.703 347.523 192.07 347.429H192.023C191.678 347.414 191.176 347.461 190.768 347.476C190.564 347.492 190.375 347.508 190.25 347.492C189.308 347.319 189.12 347.1 188.1 346.645C186.781 346.048 168.937 342.062 154.42 342.156C139.919 342.219 126.908 343.208 124.79 341.434C122.655 339.629 121.368 321.408 133.751 320.216L148.974 325.991C148.974 325.991 183.737 321.864 196.48 331.264C209.255 340.665 208.863 347.586 208.863 347.586Z" fill="#FF9D8C"/>
<path d="M192.024 347.429C191.679 347.414 191.177 347.461 190.769 347.476C190.455 346.974 189.795 346.064 189.435 345.687C185.511 341.685 176.032 339.096 172.595 338.264C172.281 338.185 172.077 337.872 172.155 337.558C172.218 337.244 172.548 337.055 172.877 337.118C177.884 338.327 188.509 341.418 191.522 346.488C191.616 346.629 191.867 347.115 192.024 347.429Z" fill="#223A7A"/>
<path d="M198.869 347.365C198.414 347.354 197.943 347.343 197.489 347.316C193.206 339.504 186.196 337.261 177.536 334.475L177.022 334.306C176.726 334.204 176.547 333.871 176.649 333.559C176.751 333.262 177.068 333.082 177.396 333.185L177.895 333.355C187.051 336.293 194.419 338.655 198.869 347.365Z" fill="#223A7A"/>
<path d="M205.975 347.537C205.567 347.528 205.112 347.533 204.641 347.52C202.042 342.057 193.443 332.914 182.067 330.784C181.739 330.729 181.525 330.426 181.58 330.096C181.651 329.784 181.954 329.572 182.268 329.627C193.988 331.829 203.441 341.399 205.975 347.537Z" fill="#223A7A"/>
<path d="M113.979 72.0277C113.979 72.0277 121.123 68.619 126.156 59.0393C131.189 49.4611 130.539 40.856 130.539 40.856C130.539 40.856 139.631 39.3949 153.269 43.4534C166.907 47.5119 183.143 53.0316 196.779 45.2394C210.417 37.4473 210.418 24.9453 203.76 19.7506C196.305 13.9328 181.518 17.4781 181.518 17.4781C181.518 17.4781 187.201 11.9584 184.116 8.71132C181.032 5.4642 169.829 9.68593 169.829 9.68593C169.829 9.68593 156.191 -1.19167 130.377 0.107803C104.564 1.40728 92.2249 19.4273 90.7638 39.5597C89.3027 59.6922 96.6083 79.823 96.6083 79.823L113.979 72.0277Z" fill="#223A7A"/>
<path d="M166.349 76.9063C164.887 80.5128 164.923 84.6984 164.554 88.5262C164.267 91.5034 163.721 94.9749 166.448 96.9854C167.751 97.9458 173.915 100.535 170.745 102.634C169.537 103.434 167.511 103.214 166.136 103.152C165.188 103.108 164.231 103.068 163.284 102.998C162.266 102.921 161.268 102.615 160.249 102.61C159.653 102.607 159.466 103.403 159.952 103.707C161.592 104.734 163.995 105.051 165.907 105.124C167.817 105.198 169.115 105.11 170.836 104.256C171.894 103.732 172.919 102.988 173.088 101.731C173.278 100.316 172.216 99.046 171.15 98.255C169.923 97.3448 168.416 96.921 167.176 96.0327C165.458 94.8023 165.599 92.7291 165.72 90.8097C166.01 86.1925 167.071 81.6569 167.484 77.0601C167.545 76.357 166.572 76.357 166.349 76.9063Z" fill="#8E9BBB"/>
<path d="M179.622 87.7047C179.137 90.4418 177.147 92.3785 175.175 92.0285C173.203 91.6801 171.997 89.1784 172.481 86.4414C172.966 83.7043 174.956 81.7677 176.929 82.1176C178.9 82.466 180.107 84.9677 179.622 87.7047Z" fill="#223A7A"/>
<path d="M154.778 85.5361C154.338 88.4897 152.257 90.6257 150.13 90.3103C148.004 89.9932 146.635 87.3425 147.075 84.3904C147.514 81.4368 149.595 79.3008 151.722 79.6163C153.848 79.9317 155.217 82.584 154.778 85.5361Z" fill="#223A7A"/>
<path d="M173.839 76.4241C175.356 76.6799 176.888 76.4194 178.418 76.5261C178.786 76.5513 179.15 76.6062 179.517 76.6407C179.777 76.6658 179.03 76.5638 179.393 76.6234C179.471 76.636 179.55 76.6486 179.628 76.6627C179.82 76.6972 180.011 76.7364 180.201 76.782C180.526 76.862 180.843 76.9844 181.17 77.055C181.466 77.1194 181.796 77.19 182.094 77.1759C182.26 77.1539 182.428 77.1304 182.595 77.1084C182.489 77.1272 182.384 77.1461 182.279 77.1649C182.279 77.201 182.849 77.11 182.901 77.0974C183.77 76.895 184.308 75.8858 184.065 75.0462C183.994 74.8029 183.888 74.5848 183.734 74.3855C183.67 74.2991 183.604 74.2144 183.535 74.1328C183.596 74.2034 183.657 74.274 183.718 74.3431C183.654 74.2521 183.586 74.1626 183.516 74.0763C183.429 73.9303 183.313 73.8158 183.169 73.7295C183.048 73.6353 182.927 73.538 182.802 73.4501C182.4 73.1707 181.87 73.0075 181.394 72.8851C180.488 72.6512 179.539 72.532 178.604 72.5273C177.676 72.5226 176.758 72.6199 175.84 72.747C175.032 72.8584 174.129 73.1331 173.473 73.6227C172.965 74.0009 172.652 74.4859 172.742 75.1498C172.814 75.6991 173.249 76.3237 173.839 76.4241Z" fill="#223A7A"/>
<path d="M156.519 72.0788C156.314 71.9564 156.104 71.8497 155.885 71.7508C155.7 71.6661 155.198 71.404 155.578 71.6112C155.44 71.5358 155.302 71.4605 155.16 71.3883C154.531 71.0713 153.878 70.8594 153.199 70.6852C151.717 70.307 150.157 70.2112 148.638 70.3713C147.017 70.5424 145.537 70.9348 144.134 71.7807C143.936 71.8999 143.732 72.0176 143.566 72.1824C143.454 72.3237 143.344 72.4649 143.237 72.6093C143.269 72.5622 143.299 72.5151 143.33 72.4681C142.897 72.771 142.646 73.2685 142.649 73.7911C142.652 74.2949 142.914 74.717 143.352 74.9603C143.883 75.2554 144.385 75.1141 144.929 74.9729C144.656 74.9729 144.382 74.9729 144.109 74.9729C144.559 75.0435 144.876 75.0607 145.331 74.9603C145.347 74.9572 145.769 74.852 145.491 74.9101C145.231 74.965 145.932 74.8551 146.009 74.8442C146.099 74.8316 146.587 74.7829 146.07 74.8332C146.166 74.8238 146.26 74.8112 146.354 74.8002C146.599 74.7704 146.844 74.7406 147.09 74.7202C148.162 74.6339 149.23 74.5868 150.305 74.5507C151.301 74.5177 152.317 74.5099 153.312 74.5538C153.738 74.5727 154.164 74.5868 154.591 74.5978C154.831 74.604 154.729 74.6417 154.564 74.5899C154.652 74.6182 154.743 74.6339 154.831 74.659C155.008 74.7076 155.182 74.7657 155.355 74.8316C156.047 75.0953 156.877 74.5962 157.135 73.959C157.416 73.2685 157.179 72.4712 156.519 72.0788Z" fill="#223A7A"/>
<path d="M164.228 117.215C165.717 114.219 168.429 112.024 171.563 110.611C168.842 110.335 155.998 109.145 152.755 110.986C149.123 113.048 153.427 121.325 160.935 121.741C161.724 121.785 162.44 121.721 163.124 121.614C163.189 120.103 163.535 118.607 164.228 117.215Z" fill="#223A7A"/>
<path d="M104.888 99.7894C104.888 99.7894 106.187 104.823 113.654 110.667C121.123 116.512 131.946 120.787 131.946 120.787L132.812 116.998C132.812 116.998 121.61 112.127 116.415 106.77C111.22 101.412 110.571 98.49 110.571 98.49L104.888 99.7894Z" fill="#DEE1EB"/>
<path d="M134.111 114.198C140.12 113.918 143.476 118.67 143.895 121.745C144.314 124.819 141.426 128.267 134.67 125.238C126.278 121.477 128.102 114.477 134.111 114.198Z" fill="#223A7A"/>
<path d="M109.596 62.6105C109.596 62.6105 112.191 43.9502 124.695 31.2771C148.561 7.0862 168.855 8.54732 168.855 8.54732C168.855 8.54732 168.692 5.13855 161.061 2.5396C153.897 0.100728 150.67 1.40334 150.67 1.40334C150.67 1.40334 131.026 3.02769 114.465 21.3726C97.9049 39.719 96.1189 63.097 96.1189 63.097L109.596 62.6105Z" fill="#DEE1EB"/>
<path d="M107.81 60.3416C92.1755 57.6908 83.4574 69.9213 82.8077 82.2584C82.1579 94.5972 91.124 103.978 103.102 103.039C130.053 100.93 126.968 63.5887 107.81 60.3416Z" fill="white"/>
<path d="M100.024 91.0481C95.8982 91.0481 92.4094 88.9749 90.4147 85.3213C88.2787 81.4087 88.4576 76.5922 90.8714 73.0516C91.055 72.7848 91.4207 72.7157 91.689 72.8962C91.9574 73.0798 92.0265 73.4455 91.8444 73.7139C89.6771 76.8935 89.5217 81.2283 91.4489 84.7563C93.2773 88.1054 96.5024 90.0013 100.326 89.8647C103.898 89.769 106.925 88.1352 108.851 85.2632C111.048 81.9863 111.553 77.4585 110.138 73.7327C108.733 70.0368 104.882 67.5147 101.379 67.973C101.063 68.0154 100.76 67.7894 100.718 67.4676C100.675 67.1459 100.901 66.8509 101.223 66.8069C105.319 66.2608 109.62 69.0606 111.236 73.3137C112.782 77.3863 112.23 82.3347 109.827 85.9177C107.683 89.1161 104.32 90.9351 100.355 91.0418C100.244 91.0465 100.134 91.0481 100.024 91.0481Z" fill="#818FB3"/>
<path d="M88.6517 142.001C88.6517 142.001 41.2444 153.69 24.6839 172.523C8.12346 191.356 0.331324 284.222 0.00645496 301.432C-0.318414 318.642 11.6955 325.784 18.8394 330.656C25.9834 335.526 57.48 344.294 82.8072 345.592C108.134 346.89 132.162 345.592 132.162 345.592C132.162 345.592 132.08 340.072 135.977 331.954C139.592 324.425 144.176 322.862 144.176 322.862L122.421 315.068C122.421 315.068 118.612 246.808 112.679 213.76C105.862 175.77 88.6517 142.001 88.6517 142.001Z" fill="#223A7A"/>
<path d="M167.232 304.165C167.126 304.165 167.017 304.143 166.915 304.098C166.518 303.922 166.339 303.459 166.515 303.064C170.957 293.041 175.56 273.367 178.151 259.564L178.364 258.448C179.149 254.388 180.125 249.338 178.178 245.854C177.184 244.076 174.94 240.218 172.782 236.509C170.542 232.66 168.428 229.022 167.841 227.937C166.697 225.817 170.298 220.154 175.511 212.387C176.919 210.288 178.135 208.477 178.845 207.249C180.703 204.035 179.466 201.091 178.033 197.681L177.545 196.507C176.247 193.321 174.77 190.128 173.345 187.041C172.763 185.78 172.179 184.518 171.605 183.248C170.844 181.569 170.078 179.863 169.302 178.135C164.714 167.907 159.969 157.329 153.894 147.112C153.671 146.74 153.795 146.259 154.167 146.037C154.539 145.816 155.021 145.939 155.244 146.31C161.364 156.606 166.129 167.223 170.735 177.493C171.509 179.22 172.273 180.924 173.035 182.602C173.609 183.867 174.19 185.125 174.772 186.384C176.206 189.487 177.688 192.696 179 195.915L179.482 197.073C180.943 200.549 182.453 204.145 180.204 208.032C179.468 209.305 178.239 211.138 176.815 213.26C174.099 217.311 168.442 225.742 169.224 227.19C169.798 228.254 171.908 231.88 174.141 235.72C176.304 239.438 178.554 243.305 179.549 245.088C181.778 249.074 180.74 254.437 179.909 258.746L179.695 259.853C178.75 264.88 173.75 290.618 167.953 303.699C167.818 303.993 167.532 304.165 167.232 304.165Z" fill="#8593B6"/>
<path d="M120.959 306.925C120.758 306.925 120.556 306.848 120.402 306.695C116.712 302.977 98.9183 272.166 97.5952 266.373C96.8702 263.2 98.6907 255.157 100.45 247.375C101.814 241.347 103.225 235.114 102.825 233.427C102.225 230.904 97.6753 227.188 93.2746 223.593C87.959 219.25 82.4629 214.76 81.3989 210.716C80.1889 206.117 81.2231 177.34 81.9074 158.299C82.1538 151.451 82.3468 146.043 82.3468 144.114C82.3468 143.681 82.6984 143.328 83.13 143.328C83.1315 143.328 83.1315 143.328 83.1315 143.328C83.5647 143.328 83.9162 143.68 83.9162 144.113C83.9162 146.07 83.7216 151.492 83.4752 158.355C82.8365 176.154 81.7661 205.941 82.9149 210.317C83.8503 213.867 89.3841 218.388 94.2665 222.378C99.0799 226.311 103.626 230.026 104.35 233.066C104.835 235.106 103.512 240.952 101.98 247.722C100.339 254.978 98.4788 263.198 99.1238 266.025C100.423 271.705 117.892 301.939 121.516 305.59C121.821 305.897 121.819 306.395 121.512 306.699C121.359 306.848 121.16 306.925 120.959 306.925Z" fill="#8593B6"/>
<path d="M57.1552 293.451C57.1192 293.451 57.0815 293.448 57.0454 293.443C56.6169 293.382 56.3172 292.985 56.3784 292.556C56.9543 288.474 65.9612 207.18 66.3756 200.953C66.4054 200.52 66.7773 200.181 67.2105 200.221C67.6421 200.251 67.9701 200.625 67.9418 201.056C67.5275 207.293 58.5096 288.689 57.9321 292.776C57.8756 293.168 57.5398 293.451 57.1552 293.451Z" fill="#8593B6"/>
<path d="M121.772 315.532C121.673 315.532 121.574 315.513 121.477 315.475C119.482 314.665 110.662 311.691 99.4991 307.926C76.9655 300.326 46.103 289.919 40.2349 286.869C39.8504 286.67 39.7013 286.196 39.9006 285.812C40.0999 285.426 40.5723 285.272 40.9584 285.477C46.7197 288.47 78.7844 299.284 100.001 306.437C111.191 310.211 120.03 313.192 122.069 314.017C122.471 314.18 122.664 314.639 122.5 315.039C122.375 315.345 122.081 315.532 121.772 315.532Z" fill="#8593B6"/>
<path d="M110.936 347.903C91.1035 347.903 52.656 344.327 23.4492 333.998C23.0396 333.852 22.8262 333.404 22.9706 332.995C23.1134 332.587 23.5669 332.373 23.9719 332.516C60.8688 345.567 112.484 347.796 122.087 345.64C122.511 345.549 122.93 345.812 123.024 346.234C123.118 346.658 122.853 347.077 122.431 347.173C120.353 347.639 116.333 347.903 110.936 347.903Z" fill="#8593B6"/>
</svg>
