<svg width="96" height="80" viewBox="0 0 96 80" fill="none" xmlns="http://www.w3.org/2000/svg">
<path d="M30.6593 36.2555C28.2999 35.5762 25.9406 35.2316 23.6455 35.2316C20.1015 35.2316 17.1442 36.0415 14.8512 37.0332C17.0618 28.9403 22.3724 14.9761 32.9513 13.4035C33.931 13.2578 34.7339 12.5494 35.0012 11.5958L37.3133 3.32601C37.5082 2.62664 37.3927 1.87804 36.9938 1.27112C36.5948 0.664197 35.9538 0.259247 35.2353 0.160774C34.4545 0.054261 33.6587 0 32.8699 0C20.1718 0 7.59628 13.2538 2.28974 32.2311C-0.825253 43.3647 -1.73865 60.1032 5.93428 70.639C10.2279 76.5343 16.4921 79.6825 24.5529 79.997C24.586 79.998 24.6182 79.999 24.6514 79.999C34.5972 79.999 43.4167 73.3008 46.0996 63.7116C47.7023 57.979 46.9778 51.9671 44.0578 46.7791C41.1688 41.6494 36.4109 37.9104 30.6593 36.2555Z" fill="#E8EFFC"/>
<path d="M92.9179 46.7801C90.029 41.6494 85.2711 37.9104 79.5194 36.2555C77.1601 35.5762 74.8007 35.2316 72.5067 35.2316C68.9626 35.2316 66.0044 36.0415 63.7114 37.0332C65.922 28.9403 71.2325 14.9761 81.8125 13.4035C82.7922 13.2578 83.594 12.5494 83.8623 11.5958L86.1745 3.32601C86.3694 2.62664 86.2538 1.87804 85.8549 1.27112C85.457 0.664197 84.8159 0.259247 84.0965 0.160774C83.3167 0.054261 82.5209 0 81.7311 0C69.033 0 56.4574 13.2538 51.1499 32.2311C48.0359 43.3647 47.1225 60.1032 54.7964 70.641C59.0891 76.5353 65.3543 79.6845 73.414 79.998C73.4472 79.999 73.4794 80 73.5135 80C83.4584 80 92.2788 73.3018 94.9617 63.7126C96.5624 57.98 95.837 51.9671 92.9179 46.7801Z" fill="#E8EFFC"/>
</svg>
