<svg width="26" height="25" viewBox="0 0 26 25" fill="none" xmlns="http://www.w3.org/2000/svg">
<path d="M23.0344 1H2.00156C1.44841 1 1 1.44772 1 2V23C1 23.5523 1.44841 24 2.00156 24H23.0344C23.5875 24 24.0359 23.5523 24.0359 23V2C24.0359 1.44772 23.5875 1 23.0344 1Z" stroke="black" stroke-width="2" stroke-linecap="round" stroke-linejoin="round"/>
<path d="M11.5156 10.5V18.5" stroke="black" stroke-width="2" stroke-linecap="round" stroke-linejoin="round"/>
<path d="M7.50977 10.5V18.5" stroke="black" stroke-width="2" stroke-linecap="round" stroke-linejoin="round"/>
<path d="M11.5156 14C11.5156 13.0717 11.8849 12.1815 12.5424 11.5251C13.1998 10.8687 14.0914 10.5 15.0211 10.5C15.9508 10.5 16.8424 10.8687 17.4998 11.5251C18.1572 12.1815 18.5266 13.0717 18.5266 14V18.5" stroke="black" stroke-width="2" stroke-linecap="round" stroke-linejoin="round"/>
<path d="M7.51016 8C8.33988 8 9.0125 7.32843 9.0125 6.5C9.0125 5.67157 8.33988 5 7.51016 5C6.68043 5 6.00781 5.67157 6.00781 6.5C6.00781 7.32843 6.68043 8 7.51016 8Z" fill="black"/>
</svg>
