<svg width="57" height="58" viewBox="0 0 57 58" fill="none" xmlns="http://www.w3.org/2000/svg">
<path fill-rule="evenodd" clip-rule="evenodd" d="M15.6558 12.4999C16.8143 11.7032 18.1763 11.278 19.5696 11.278C20.4642 11.278 21.1894 12.0243 21.1894 12.945C21.1894 13.8656 20.4642 14.6119 19.5696 14.6119C18.817 14.6119 18.0813 14.8416 17.4555 15.2719C16.8297 15.7022 16.342 16.3138 16.054 17.0294C15.766 17.745 15.6906 18.5324 15.8374 19.2921C15.9843 20.0517 16.3467 20.7495 16.8789 21.2972C17.4111 21.8449 18.0891 22.2179 18.8273 22.369C19.5654 22.5201 20.3305 22.4425 21.0259 22.1461C21.7212 21.8497 22.3155 21.3478 22.7337 20.7038C23.1518 20.0597 23.375 19.3026 23.375 18.528C23.375 17.6074 24.1002 16.8611 24.9947 16.8611C25.8893 16.8611 26.6145 17.6074 26.6145 18.528C26.6145 19.962 26.2013 21.3637 25.4272 22.5559C24.6531 23.7482 23.5529 24.6774 22.2656 25.2262C20.9783 25.7749 19.5618 25.9185 18.1953 25.6388C16.8287 25.359 15.5734 24.6685 14.5882 23.6546C13.603 22.6406 12.932 21.3488 12.6602 19.9425C12.3884 18.5361 12.5279 17.0784 13.0611 15.7536C13.5943 14.4288 14.4972 13.2965 15.6558 12.4999Z" fill="#8D98AA"/>
<path fill-rule="evenodd" clip-rule="evenodd" d="M54.7621 20.9443C55.6438 20.9443 56.3586 21.6952 56.3586 22.6214V36.6646C56.3586 43.8486 55.0083 49.3137 51.5742 52.9416C48.1378 56.5719 42.9589 57.9999 36.154 57.9999H20.2045C13.4018 57.9999 8.223 56.5725 4.78615 52.9426C1.35139 49.315 0 43.8499 0 36.6646V31.0183C0 30.092 0.71475 29.3411 1.59644 29.3411C2.47813 29.3411 3.19288 30.092 3.19288 31.0183V36.6646C3.19288 43.5224 4.50222 47.8864 7.04985 50.5771C9.59539 53.2656 13.7206 54.6457 20.2045 54.6457H36.154C42.6401 54.6457 46.7652 53.265 49.3102 50.5764C51.8573 47.8855 53.1657 43.5215 53.1657 36.6646V22.6214C53.1657 21.6952 53.8804 20.9443 54.7621 20.9443Z" fill="#8D98AA"/>
<path fill-rule="evenodd" clip-rule="evenodd" d="M4.85258 4.95461C8.33515 1.39882 13.5829 0 20.4811 0H31.2659C32.155 0 32.8758 0.735969 32.8758 1.64383C32.8758 2.5517 32.155 3.28767 31.2659 3.28767H20.4811C13.9006 3.28767 9.71275 4.64172 7.12944 7.27935C4.54613 9.91697 3.21996 14.1929 3.21996 20.9118C3.21996 21.8196 2.49915 22.5556 1.60998 22.5556C0.720814 22.5556 0 21.8196 0 20.9118C0 13.8685 1.37002 8.51041 4.85258 4.95461Z" fill="#8D98AA"/>
<path fill-rule="evenodd" clip-rule="evenodd" d="M36.0064 9.66657C36.0064 8.77678 36.7567 8.05546 37.6821 8.05546H53.1169C54.0423 8.05546 54.7926 8.77678 54.7926 9.66657C54.7926 10.5564 54.0423 11.2777 53.1169 11.2777H37.6821C36.7567 11.2777 36.0064 10.5564 36.0064 9.66657Z" fill="#8D98AA"/>
<path fill-rule="evenodd" clip-rule="evenodd" d="M45.4004 0C46.265 0 46.9659 0.772108 46.9659 1.72455V17.6088C46.9659 18.5613 46.265 19.3334 45.4004 19.3334C44.5358 19.3334 43.8349 18.5613 43.8349 17.6088V1.72455C43.8349 0.772108 44.5358 0 45.4004 0Z" fill="#8D98AA"/>
<path fill-rule="evenodd" clip-rule="evenodd" d="M43.9127 31.6986L32.8331 41.569L32.8036 41.5946C31.4566 42.7375 29.7665 43.3624 28.0222 43.3624C26.2779 43.3624 24.5878 42.7375 23.2408 41.5946C23.2263 41.5823 23.212 41.5697 23.1979 41.5569L22.3426 40.7776C21.6264 40.1828 20.7467 39.8353 19.828 39.7848C18.9036 39.734 17.9874 39.9864 17.2109 40.5056L4.06655 49.6612C3.33286 50.1722 2.33638 49.9731 1.84086 49.2164C1.34534 48.4598 1.53841 47.4321 2.2721 46.921L15.4493 37.7426C16.7978 36.8355 18.3911 36.3945 19.9987 36.4829C21.6063 36.5714 23.145 37.1848 24.3923 38.2346C24.4085 38.2483 24.4244 38.2622 24.4401 38.2765L25.2979 39.0581C26.0677 39.7033 27.0297 40.0558 28.0222 40.0558C29.0175 40.0558 29.982 39.7014 30.7529 39.0527L41.8326 29.1823L41.862 29.1567C43.2091 28.0138 44.8992 27.389 46.6435 27.389C48.3877 27.389 50.0779 28.0138 51.4249 29.1567L51.4544 29.1824L55.804 33.0577C56.474 33.6546 56.5479 34.6986 55.9691 35.3895C55.3904 36.0805 54.3781 36.1568 53.7081 35.5598L49.3741 31.6986C48.6032 31.0499 47.6387 30.6955 46.6435 30.6955C45.6482 30.6955 44.6836 31.05 43.9127 31.6986Z" fill="#8D98AA"/>
</svg>
