<svg width="685" height="503" viewBox="0 0 685 503" fill="none" xmlns="http://www.w3.org/2000/svg">
<path d="M77.5037 501.156C77.5037 501.156 17.8778 468.75 2.3233 393.57C-13.2312 318.39 54.1711 249.69 60.6523 212.1C67.1335 174.51 52.8759 127.846 112.5 91.5531C172.126 55.2597 278.415 68.2205 318.598 59.1472C358.78 50.0738 405.444 -12.1442 485.81 2.11344C566.175 16.3727 643.947 59.1472 647.836 152.474C651.725 245.801 621.912 248.393 651.725 298.946C681.538 349.499 693.205 384.497 678.945 436.344C664.688 488.192 634.874 502.452 634.874 502.452L77.5037 501.156Z" fill="#DDECFF"/>
</svg>
