<svg width="364" height="129" viewBox="0 0 364 129" fill="none" xmlns="http://www.w3.org/2000/svg">
<path d="M363.215 4.5452L301.131 127.523L120.129 128.821L175.989 2.81383L363.215 4.5452Z" fill="#F6F7FA"/>
<path d="M0 128.057L0.0345143 118.214H117.206L171.117 0H358.506L363.215 4.54741H180.155L124.133 127.958C124.133 127.957 0 127.732 0 128.057Z" fill="#D9DEE8"/>
<path d="M269.226 72.4064C267.181 78.5408 256.083 83.2766 244.437 82.9862C232.792 82.6958 225.009 77.4859 227.053 71.3516C229.097 65.2172 240.196 60.4814 251.842 60.7718C263.487 61.0638 271.271 66.272 269.226 72.4064Z" fill="#D9DEE8"/>
<path d="M124.135 128.74C124.027 128.74 123.915 128.716 123.81 128.669C123.416 128.49 123.242 128.026 123.421 127.63L179.65 3.75928H363.215C363.648 3.75928 364 4.11089 364 4.54412C364 4.97736 363.648 5.32897 363.215 5.32897H180.661L124.848 128.28C124.719 128.569 124.432 128.74 124.135 128.74Z" fill="white"/>
</svg>
