<svg width="53" height="37" viewBox="0 0 53 37" fill="none" xmlns="http://www.w3.org/2000/svg">
<path d="M26.8285 24.1074C26.5633 24.1074 26.2965 24.0179 26.0784 23.8375L0.429868 2.65303C-0.0706761 2.23879 -0.141259 1.49817 0.271416 0.996059C0.688797 0.493946 1.42941 0.426477 1.92839 0.837582L26.8065 21.385L51.0507 0.288411C51.5387 -0.136816 52.284 -0.0866209 52.7108 0.404508C53.1376 0.895638 53.0858 1.63782 52.5963 2.06462L27.5989 23.8155C27.3792 24.0101 27.1031 24.1074 26.8285 24.1074Z" fill="#6F7FA9"/>
<path d="M1.17799 36.7163C0.886141 36.7163 0.594242 36.6096 0.366722 36.3915C-0.105578 35.9427 -0.12436 35.199 0.325972 34.7267L18.2639 15.8692C18.708 15.3985 19.458 15.3781 19.9272 15.8284C20.3995 16.2772 20.4183 17.0209 19.968 17.4932L2.03002 36.3507C1.79936 36.5939 1.48868 36.7163 1.17799 36.7163Z" fill="#6F7FA9"/>
<path d="M51.8221 36.0259C51.5208 36.0259 51.2179 35.9113 50.9889 35.6807L33.123 17.7662C32.6648 17.3049 32.6649 16.5596 33.1262 16.1014C33.5875 15.6417 34.3312 15.6432 34.7894 16.103L52.6552 34.0174C53.1134 34.4787 53.1134 35.2241 52.6521 35.6823C52.423 35.9129 52.1233 36.0259 51.8221 36.0259Z" fill="#6F7FA9"/>
</svg>
