<svg width="115" height="55" viewBox="0 0 115 55" fill="none" xmlns="http://www.w3.org/2000/svg">
<path d="M84.5586 55H8.52023C3.81416 55 0 51.1858 0 46.4798V8.52026C0 3.81418 3.81416 0 8.52023 0H84.5586C89.2647 0 93.0789 3.81418 93.0789 8.52026V46.4798C93.0789 51.1858 89.2631 55 84.5586 55Z" fill="white"/>
<path d="M114.749 27.4997L86.1902 15.4479V39.5498L114.749 27.4997Z" fill="white"/>
<path d="M28.5007 32.7605C31.406 32.7605 33.7611 30.4053 33.7611 27.5001C33.7611 24.5949 31.406 22.2398 28.5007 22.2398C25.5955 22.2398 23.2404 24.5949 23.2404 27.5001C23.2404 30.4053 25.5955 32.7605 28.5007 32.7605Z" fill="#223A7A"/>
<path d="M46.5403 32.7605C49.4455 32.7605 51.8006 30.4053 51.8006 27.5001C51.8006 24.5949 49.4455 22.2398 46.5403 22.2398C43.635 22.2398 41.2799 24.5949 41.2799 27.5001C41.2799 30.4053 43.635 32.7605 46.5403 32.7605Z" fill="#223A7A"/>
<path d="M64.578 32.7605C67.4832 32.7605 69.8384 30.4053 69.8384 27.5001C69.8384 24.5949 67.4832 22.2398 64.578 22.2398C61.6728 22.2398 59.3176 24.5949 59.3176 27.5001C59.3176 30.4053 61.6728 32.7605 64.578 32.7605Z" fill="#223A7A"/>
</svg>
