<svg width="123" height="260" viewBox="0 0 123 260" fill="none" xmlns="http://www.w3.org/2000/svg">
<path d="M27.288 56.8231C33.4394 62.2344 41.2309 65.7029 46.628 71.9577C48.7527 74.4195 50.661 77.0397 52.632 79.6207C54.0668 81.4992 57.8975 84.6148 58.52 86.9763C58.7944 88.0159 58.7364 86.6078 58.4604 85.5651C58.4494 85.5212 58.4259 85.4788 58.4133 85.4349C57.8755 80.654 57.4882 75.8543 57.322 71.0451C57.1542 66.2501 57.4537 61.4331 57.1526 56.6444C56.7293 49.8877 54.6203 43.3459 49.0977 39.1138C46.3991 37.0456 42.9291 35.7865 40.4484 33.4893C38.0933 31.3097 39.0372 28.8134 40.4234 26.383C41.7185 24.1094 43.2897 21.8733 43.7946 19.2547C44.3685 16.2786 43.2489 13.21 41.7405 10.6745C38.5276 5.28203 31.4025 -0.732927 24.6553 0.0730397C19.0276 0.745724 18.3894 7.23737 18.471 11.7596C18.5494 16.1563 18.9837 20.5389 19.026 24.9388C19.0699 29.4579 18.3016 33.8923 18.2373 38.3909C18.1276 46.0429 21.6635 51.876 27.288 56.8231Z" fill="#6BAEFF"/>
<path d="M84.4417 127.042C86.154 122.958 88.1187 119.138 90.535 115.425C93.8498 110.327 97.5269 105.361 99.7519 99.6551C102.026 93.8283 101.692 87.5954 101.916 81.4598C102.08 76.9501 103.42 72.4546 103.059 67.9324C102.886 65.7638 101.637 62.2561 98.8315 62.6152C96.6488 62.8943 95.352 65.6007 94.5131 67.3287C93.0486 70.3408 92.0341 73.5569 90.9474 76.718C90.5225 77.9536 90.1179 79.2128 89.5817 80.4076C89.2696 81.1022 88.2771 82.7973 87.3394 82.5652C85.7463 82.1716 87.192 75.6643 87.4304 74.5118C88.6221 68.7227 90.4127 63.3428 90.6621 57.3858C91.0227 48.7491 90.3516 38.4675 81.903 33.7446C79.6953 32.5106 76.8979 31.7752 74.7999 33.6208C72.7301 35.4428 72.1452 38.5993 71.8379 41.1975C70.8939 49.174 72.7724 56.7272 75.3283 64.2318C77.4389 70.4287 79.954 76.8231 80.1374 83.4496C80.3146 89.8283 76.9951 95.481 75.4381 101.505C72.9559 111.11 73.4686 116.199 73.4576 119.31C73.442 123.205 73.5831 127.06 73.8685 130.945C74.1303 134.516 74.4392 138.088 74.8767 141.641C74.9645 142.36 75.046 143.11 75.1433 143.863C73.7712 140.557 73.2914 136.773 72.1546 133.454C70.135 127.553 67.7908 121.774 65.8527 115.843C64.2518 110.945 62.7386 106.009 60.6249 101.3C58.6413 96.8813 56.247 92.2102 52.548 88.9659C50.312 87.0059 47.6024 85.8596 44.6122 85.8832C42.6992 85.8973 40.9806 86.5605 39.1539 87.0435C36.9069 87.6362 35.1382 87.4324 33.2879 86.0117C27.2337 81.3578 25.3929 73.0144 20.9099 67.1217C17.5668 62.7265 9.63576 55.2345 3.80269 60.0264C0.708974 62.5681 -0.144037 67.4823 0.0190384 71.2472C0.222882 75.9717 2.28797 80.2947 4.74664 84.2446C7.36211 88.4469 10.7381 92.2086 13.1419 96.5269C14.5625 99.0781 14.7852 101.524 14.5594 104.403C14.3477 107.114 14.1109 109.739 15.0345 112.355C17.8099 120.21 26.4764 119.114 33.2158 119.32C37.9324 119.462 42.9924 120.165 47.4691 121.673C52.6436 123.417 56.0102 126.784 57.8605 131.903C59.1996 135.607 59.9146 139.814 62.436 142.961C63.6214 144.441 65.191 145.534 66.9158 146.296C69.5454 147.458 77.558 147.965 77.6176 147.232C77.8168 144.781 78.9787 142.196 79.7062 139.87C81.0704 135.508 82.6745 131.256 84.4417 127.042Z" fill="#6BAEFF"/>
<path d="M121.652 125.562C120.956 121.071 121.089 116.121 118.963 111.997C118.811 111.702 118.408 111.627 118.135 111.779C116.611 112.624 116.548 115.086 116.423 116.595C116.217 119.097 116.369 121.606 116.062 124.101C115.521 128.485 114.508 133.004 112.929 137.137C111.143 141.812 107.892 144.463 103.173 145.923C100.139 146.861 97.1656 147.676 94.6332 149.689C92.3674 151.491 90.7931 153.976 89.6249 156.595C86.4732 163.66 84.9726 171.56 83.5128 179.11C82.5296 184.194 81.7268 189.301 80.4928 194.333C79.2587 199.361 77.9353 204.366 77.2266 209.505C77.1074 209.764 76.9804 210.021 76.8706 210.283C76.5476 211.051 77.7487 211.467 78.1642 210.828C83.0361 203.328 88.9711 196.597 97.0684 192.467C100.725 190.601 105.583 190.215 108.633 187.283C110.953 185.053 111.273 181.652 110.925 178.619C110.469 174.635 108.559 171.355 106.571 167.96C105.478 166.096 104.187 164.096 104.628 161.831C105.043 159.692 106.822 158.121 108.586 157.025C111.951 154.934 115.888 153.995 118.644 150.981C121.205 148.182 122.624 144.701 122.908 140.932C123.286 135.91 122.42 130.523 121.652 125.562Z" fill="#6BAEFF"/>
<path d="M55.2211 151.455C50.9216 145.917 45.733 141.141 39.8936 137.263C36.7795 135.195 29.4286 131.112 27.9453 137.216C27.0766 140.793 30.5764 144.311 32.8798 146.554C36.3421 149.923 40.3468 152.83 43.268 156.713C39.6506 157.867 35.8716 158.091 32.7293 160.592C29.0084 163.553 27.34 169.27 31.0296 172.898C32.8265 174.665 35.2115 175.75 37.4491 176.834C40.3593 178.242 43.3229 179.52 46.3069 180.766C52.7483 183.457 59.2698 186.187 64.7641 190.593C70.362 195.086 75.6243 202.68 76.0696 210.007C76.112 210.705 75.847 210.068 76.2641 209.75C76.4914 209.954 77.2597 209.587 77.255 209.179C77.1406 198.305 75.1868 187.951 70.743 177.992C66.6254 168.758 61.4305 159.454 55.2211 151.455Z" fill="#6BAEFF"/>
<path d="M40.3715 50.2334C42.7439 55.1555 45.2245 59.9646 47.8572 64.7643C50.3912 69.3853 52.9235 73.9703 54.8193 78.9017C57.1541 84.9715 59.6018 90.952 62.0698 96.9685C64.6351 103.222 66.9292 109.593 68.7685 116.098C72.3592 128.796 75.0265 141.867 76.3452 155.003C77.0163 161.681 77.3205 168.4 77.137 175.111C76.9928 180.355 76.4016 185.543 75.9093 190.76C75.3965 196.189 75.0265 201.681 75.4812 207.129C75.8607 211.682 76.5851 217.095 80.1179 220.344C80.8093 220.981 81.7894 220.187 81.3879 219.364C77.1888 210.752 77.424 201.365 78.2268 192.026C78.6706 186.871 79.2852 181.742 79.4593 176.568C79.6804 169.984 79.4217 163.387 78.8023 156.83C77.5839 143.94 75.0139 131.203 71.6803 118.703C69.9696 112.293 67.8559 106.008 65.4176 99.838C62.9746 93.6553 60.1537 87.6403 57.786 81.4262C53.5037 70.1881 46.9791 60.2249 41.201 49.7505C40.8952 49.2064 40.1065 49.6846 40.3715 50.2334Z" fill="#43588E"/>
<path d="M76.5355 142.126C77.2145 133.941 77.9405 126.062 80.6987 118.255C81.986 114.614 83.5446 111.073 84.7865 107.418C85.812 104.398 87.3471 100.254 86.5584 97.0423C86.4706 96.6832 85.9484 96.702 85.8496 97.0423C85.3212 98.8769 85.3792 100.887 84.9982 102.769C84.6281 104.599 84.1326 106.399 83.5634 108.175C82.3529 111.957 80.7708 115.583 79.4003 119.304C76.7519 126.496 75.3925 134.462 75.9711 142.125C75.9993 142.49 76.5057 142.488 76.5355 142.126Z" fill="#43588E"/>
<path d="M29.112 95.0957C32.3609 102.944 42.125 103.395 49.2376 105.153C54.3165 106.408 58.0656 109.798 60.7595 114.196C63.7058 119.008 65.7003 124.658 67.3389 130.03C67.3577 130.091 67.4456 130.066 67.433 130.003C65.4432 120.597 62.5925 109.271 52.8974 104.894C45.1278 101.387 34.8886 103.148 29.9179 94.7555C29.6733 94.3431 28.9144 94.6206 29.112 95.0957Z" fill="#43588E"/>
<path d="M71.3999 140.883C71.7857 141.406 72.14 141.95 72.5399 142.462C72.7375 142.715 72.9382 142.955 73.1875 143.159C73.4431 143.367 73.741 143.626 74.0907 143.62C74.2365 143.617 74.34 143.455 74.26 143.325C74.1001 143.063 73.81 142.906 73.5826 142.706C73.3506 142.5 73.1122 142.299 72.8864 142.085C72.4333 141.655 72.0162 141.188 71.5724 140.749C71.4877 140.666 71.3231 140.78 71.3999 140.883Z" fill="#43588E"/>
<path d="M51.0873 165.78C56.6899 170.381 61.8597 175.824 65.9663 181.785C67.9295 184.636 69.7421 187.653 71.3854 190.7C73.1808 194.025 74.3584 197.542 75.7649 201.031C75.8716 201.296 76.3545 201.303 76.3185 200.956C75.5407 193.577 70.8649 187.25 67.122 181.11C65.1776 177.92 62.7597 175.349 60.1599 172.689C57.4739 169.942 54.7393 167.344 51.5907 165.127C51.2081 164.857 50.7204 165.479 51.0873 165.78Z" fill="#43588E"/>
<path d="M95.7076 157.092C93.0091 158.621 92.9212 162.884 92.8679 165.606C92.766 170.835 94.0612 175.747 91.7656 180.731C89.6927 185.232 86.381 188.99 83.7765 193.171C81.3382 197.083 78.9344 202.086 78.9893 206.795C78.9924 207.068 79.4095 207.22 79.5366 206.944C80.5181 204.805 80.8709 202.376 81.5734 200.136C82.3637 197.616 83.4692 195.328 84.8976 193.113C87.4033 189.23 90.4798 185.696 92.512 181.52C94.6539 177.12 94.3403 172.761 94.1992 167.991C94.1082 164.951 93.804 160.065 96.2564 157.804C96.6422 157.449 96.1498 156.841 95.7076 157.092Z" fill="#43588E"/>
<path d="M77.6584 207.28C66.7873 207.129 46.0815 207.01 46.0815 207.01L51.2058 245.054C52.3583 253.612 59.6637 260 68.3004 260H77.2288H78.0928H87.0211C95.6578 260 102.962 253.613 104.116 245.054L109.24 207.01C109.237 207.01 88.5295 207.129 77.6584 207.28Z" fill="white"/>
</svg>
