<svg width="105" height="27" viewBox="0 0 105 27" fill="none" xmlns="http://www.w3.org/2000/svg">
<path d="M98.4607 27H6.28931C2.81604 27 0 24.184 0 20.7107V6.28931C0 2.81604 2.81604 0 6.28931 0H98.4607C101.934 0 104.75 2.81604 104.75 6.28931V20.7107C104.75 24.184 101.934 27 98.4607 27Z" fill="#223A7A"/>
<path d="M12.9433 20.5788C12.5298 20.5788 12.198 20.431 11.948 20.137C11.6964 19.843 11.5848 19.4735 11.6163 19.0316L12.0156 15.5364C12.0439 15.4483 12.0298 15.3886 11.9716 15.3587C11.9118 15.3288 11.8379 15.3445 11.7499 15.4027L8.87409 17.4829C8.52032 17.7486 8.15086 17.8445 7.76721 17.7706C7.38356 17.6983 7.07381 17.4688 6.83796 17.0851C6.57223 16.6134 6.52192 16.1999 6.6823 15.8461C6.84425 15.4923 7.11783 15.2423 7.50147 15.0945L10.7326 13.6338C10.8206 13.604 10.8663 13.56 10.8663 13.5002C10.8663 13.442 10.8222 13.398 10.7326 13.3666L7.50147 11.9059C7.08795 11.7282 6.82221 11.4499 6.70586 11.0647C6.58951 10.681 6.63357 10.2974 6.83954 9.91372C7.07539 9.53008 7.38514 9.30208 7.76879 9.22818C8.15244 9.15585 8.52033 9.23604 8.87568 9.47189L11.7515 11.5961C11.8395 11.6559 11.9134 11.67 11.9732 11.6402C12.0313 11.6103 12.0455 11.5521 12.0172 11.4625L11.6178 7.96717C11.588 7.52535 11.7059 7.15586 11.9716 6.86026C12.2373 6.56624 12.5911 6.41845 13.0345 6.41845C13.448 6.41845 13.786 6.56624 14.0518 6.86026C14.3175 7.15586 14.4213 7.52378 14.36 7.96717L13.9622 11.4625C13.9323 11.5505 13.9464 11.6103 14.0062 11.6402C14.0644 11.67 14.1398 11.6559 14.2279 11.5961L17.1037 9.51592C17.4574 9.25019 17.8333 9.15428 18.2326 9.22818C18.6304 9.30208 18.9323 9.53165 19.1399 9.91372C19.404 10.387 19.4559 10.7989 19.2939 11.1527C19.132 11.5065 18.8584 11.7565 18.4763 11.9043L15.2468 13.365C15.1587 13.3949 15.1131 13.4389 15.1131 13.4986C15.1131 13.5584 15.1571 13.6024 15.2468 13.6323L18.4763 15.093C18.8899 15.2691 19.1634 15.5505 19.2939 15.9342C19.4276 16.3178 19.3757 16.7015 19.1399 17.0851C18.9323 17.4688 18.6304 17.6983 18.2326 17.7706C17.8333 17.8445 17.4574 17.7628 17.1037 17.5285L14.2279 15.4043C14.1398 15.3461 14.0644 15.3304 14.0062 15.3603C13.9464 15.3901 13.9323 15.4483 13.9622 15.5379L14.36 19.0332C14.4197 19.4751 14.3097 19.8446 14.0298 20.1386C13.7452 20.431 13.3851 20.5788 12.9433 20.5788Z" fill="white"/>
<path d="M32.0045 20.5788C31.591 20.5788 31.2593 20.431 31.0093 20.137C30.7577 19.843 30.6476 19.4735 30.6775 19.0316L31.0769 15.5364C31.1052 15.4483 31.0911 15.3886 31.0329 15.3587C30.9731 15.3288 30.8992 15.3445 30.8111 15.4027L27.9354 17.4829C27.5816 17.7486 27.2121 17.8445 26.8285 17.7706C26.4448 17.6983 26.1351 17.4688 25.8992 17.0851C25.6335 16.6134 25.5832 16.1999 25.7435 15.8461C25.9055 15.4923 26.1791 15.2423 26.5627 15.0945L29.7938 13.6338C29.8819 13.604 29.9259 13.56 29.9259 13.5002C29.9259 13.442 29.8819 13.398 29.7938 13.3666L26.5627 11.9059C26.1492 11.7282 25.8835 11.4499 25.7672 11.0647C25.6508 10.681 25.6948 10.2974 25.9008 9.91372C26.1366 9.53008 26.4464 9.30208 26.83 9.22818C27.2137 9.15585 27.5816 9.23604 27.9369 9.47189L30.8127 11.5961C30.9008 11.6559 30.9747 11.67 31.0344 11.6402C31.0926 11.6103 31.1068 11.5521 31.0785 11.4625L30.6791 7.96717C30.6492 7.52535 30.7672 7.15586 31.0329 6.86026C31.2986 6.56624 31.6524 6.41845 32.0958 6.41845C32.5093 6.41845 32.8473 6.56624 33.1131 6.86026C33.3788 7.15586 33.481 7.52378 33.4212 7.96717L33.0234 11.4625C32.9936 11.5505 33.0077 11.6103 33.0674 11.6402C33.1256 11.67 33.2011 11.6559 33.2892 11.5961L36.1649 9.51592C36.5171 9.25019 36.8945 9.15428 37.2939 9.22818C37.6917 9.30208 37.9936 9.53165 38.2011 9.91372C38.4653 10.387 38.5171 10.7989 38.3552 11.1527C38.1932 11.5065 37.9197 11.7565 37.5376 11.9043L34.308 13.365C34.2199 13.3949 34.1744 13.4389 34.1744 13.4986C34.1744 13.5584 34.2184 13.6024 34.308 13.6323L37.5376 15.093C37.9511 15.2691 38.2247 15.5505 38.3552 15.9342C38.4888 16.3178 38.4369 16.7015 38.2011 17.0851C37.9936 17.4688 37.6917 17.6983 37.2939 17.7706C36.8945 17.8445 36.5187 17.7628 36.1649 17.5285L33.2892 15.4043C33.2011 15.3461 33.1256 15.3304 33.0674 15.3603C33.0077 15.3901 32.9936 15.4483 33.0234 15.5379L33.4212 19.0332C33.481 19.4751 33.3709 19.8446 33.091 20.1386C32.808 20.431 32.4464 20.5788 32.0045 20.5788Z" fill="white"/>
<path d="M51.0707 20.5788C50.6572 20.5788 50.3254 20.431 50.0754 20.137C49.8238 19.843 49.7122 19.4735 49.7437 19.0316L50.143 15.5364C50.1713 15.4483 50.1572 15.3886 50.099 15.3587C50.0393 15.3288 49.9653 15.3445 49.8773 15.4027L47.0015 17.4829C46.6478 17.7486 46.2782 17.8445 45.8946 17.7706C45.511 17.6983 45.2012 17.4688 44.9653 17.0851C44.6996 16.6134 44.6493 16.1999 44.8097 15.8461C44.9716 15.4923 45.2452 15.2423 45.6289 15.0945L48.86 13.6338C48.948 13.604 48.9937 13.56 48.9937 13.5002C48.9937 13.442 48.9496 13.398 48.86 13.3666L45.6289 11.9059C45.2153 11.7282 44.9497 11.4499 44.8333 11.0647C44.7169 10.681 44.761 10.2974 44.9669 9.91372C45.2028 9.53008 45.5125 9.30208 45.8962 9.22818C46.2798 9.15585 46.6477 9.23604 47.0031 9.47189L49.8789 11.5961C49.9669 11.6559 50.0408 11.67 50.1006 11.6402C50.1587 11.6103 50.1729 11.5521 50.1446 11.4625L49.7452 7.96717C49.7154 7.52535 49.8333 7.15586 50.1006 6.86026C50.3663 6.56624 50.7201 6.41845 51.1619 6.41845C51.5754 6.41845 51.9135 6.56624 52.1792 6.86026C52.4449 7.15586 52.5487 7.52378 52.4874 7.96717L52.0896 11.4625C52.0597 11.5505 52.0738 11.6103 52.1336 11.6402C52.1918 11.67 52.2673 11.6559 52.3553 11.5961L55.2311 9.51592C55.5848 9.25019 55.9606 9.15428 56.36 9.22818C56.7578 9.30208 57.0597 9.53165 57.2672 9.91372C57.5314 10.387 57.5833 10.7989 57.4213 11.1527C57.2594 11.5065 56.9858 11.7565 56.6037 11.9043L53.3741 13.365C53.2861 13.3949 53.2405 13.4389 53.2405 13.4986C53.2405 13.5584 53.2845 13.6024 53.3741 13.6323L56.6037 15.093C57.0173 15.2691 57.2908 15.5505 57.4213 15.9342C57.555 16.3178 57.5031 16.7015 57.2672 17.0851C57.0597 17.4688 56.7578 17.6983 56.36 17.7706C55.9606 17.8445 55.5848 17.7628 55.2311 17.5285L52.3553 15.4043C52.2673 15.3461 52.1918 15.3304 52.1336 15.3603C52.0738 15.3901 52.0597 15.4483 52.0896 15.5379L52.4874 19.0332C52.5471 19.4751 52.4371 19.8446 52.1572 20.1386C51.8726 20.431 51.5125 20.5788 51.0707 20.5788Z" fill="white"/>
<path d="M70.1339 20.579C69.7204 20.579 69.3886 20.4312 69.1386 20.1371C68.887 19.8431 68.777 19.4736 68.8069 19.0318L69.2062 15.5365C69.2345 15.4485 69.2204 15.3887 69.1622 15.3588C69.1025 15.329 69.0285 15.3447 68.9405 15.4029L66.0647 17.4831C65.711 17.7488 65.3415 17.8447 64.9578 17.7708C64.5742 17.6985 64.2644 17.4689 64.0286 17.0853C63.7628 16.6136 63.7125 16.2 63.8729 15.8463C64.0348 15.4925 64.3084 15.2425 64.6921 15.0947L67.9232 13.634C68.0112 13.6041 68.0569 13.5601 68.0569 13.5004C68.0569 13.4422 68.0128 13.3982 67.9232 13.3667L64.6921 11.906C64.2786 11.7283 64.0129 11.45 63.8965 11.0648C63.7802 10.6812 63.8242 10.2975 64.0301 9.91388C64.266 9.53023 64.5757 9.30223 64.9594 9.22833C65.343 9.15601 65.7109 9.23619 66.0663 9.47204L68.9421 11.5963C69.0301 11.656 69.104 11.6702 69.1638 11.6403C69.2219 11.6104 69.2361 11.5522 69.2078 11.4626L68.8084 7.96733C68.7786 7.5255 68.8965 7.15601 69.1622 6.86042C69.428 6.56639 69.7817 6.41861 70.2251 6.41861C70.6386 6.41861 70.9767 6.56639 71.2424 6.86042C71.5081 7.15601 71.6119 7.52393 71.5506 7.96733L71.1528 11.4626C71.1229 11.5507 71.137 11.6104 71.1968 11.6403C71.255 11.6702 71.3305 11.656 71.4185 11.5963L74.2943 9.51607C74.6465 9.25035 75.0239 9.15444 75.4232 9.22833C75.821 9.30223 76.1229 9.5318 76.3305 9.91388C76.5946 10.3871 76.6465 10.7991 76.4845 11.1529C76.3226 11.5066 76.049 11.7567 75.6669 11.9045L72.4374 13.3651C72.3493 13.395 72.3037 13.439 72.3037 13.4988C72.3037 13.5585 72.3477 13.6026 72.4374 13.6324L75.6669 15.0931C76.0805 15.2692 76.354 15.5507 76.4845 15.9343C76.6182 16.318 76.5663 16.7016 76.3305 17.0853C76.1229 17.4689 75.821 17.6985 75.4232 17.7708C75.0239 17.8447 74.648 17.7629 74.2943 17.5287L71.4185 15.4045C71.3305 15.3463 71.255 15.3306 71.1968 15.3604C71.137 15.3903 71.1229 15.4485 71.1528 15.5381L71.5506 19.0334C71.6103 19.4752 71.5003 19.8447 71.2204 20.1387C70.9358 20.4312 70.5757 20.579 70.1339 20.579Z" fill="white"/>
<path d="M89.1971 20.5788C88.7836 20.5788 88.4518 20.431 88.2018 20.137C87.9503 19.843 87.8402 19.4735 87.8701 19.0316L88.2694 15.5364C88.2977 15.4483 88.2836 15.3886 88.2254 15.3587C88.1657 15.3288 88.0918 15.3445 88.0037 15.4027L85.1279 17.4829C84.7742 17.7486 84.4047 17.8445 84.021 17.7706C83.6374 17.6983 83.3276 17.4688 83.0918 17.0851C82.826 16.6134 82.7757 16.1999 82.9361 15.8461C83.0981 15.4923 83.3716 15.2423 83.7553 15.0945L86.9864 13.6338C87.0745 13.604 87.1201 13.56 87.1201 13.5002C87.1201 13.442 87.0761 13.398 86.9864 13.3666L83.7553 11.9059C83.3418 11.7282 83.0761 11.4499 82.9597 11.0647C82.8434 10.681 82.8874 10.2974 83.0933 9.91372C83.3292 9.53008 83.6389 9.30208 84.0226 9.22818C84.4062 9.15585 84.7742 9.23604 85.1295 9.47189L88.0053 11.5961C88.0933 11.6559 88.1673 11.67 88.227 11.6402C88.2852 11.6103 88.2993 11.5521 88.271 11.4625L87.8717 7.96717C87.8418 7.52535 87.9597 7.15586 88.227 6.86026C88.4927 6.56624 88.8465 6.41845 89.2883 6.41845C89.7018 6.41845 90.0399 6.56624 90.3056 6.86026C90.5713 7.15586 90.6751 7.52378 90.6138 7.96717L90.216 11.4625C90.1861 11.5505 90.2003 11.6103 90.26 11.6402C90.3182 11.67 90.3921 11.6559 90.4817 11.5961L93.3575 9.51592C93.7113 9.25019 94.0871 9.15428 94.4864 9.22818C94.8842 9.30208 95.1861 9.53165 95.3937 9.91372C95.6578 10.387 95.7097 10.7989 95.5477 11.1527C95.3858 11.5065 95.1122 11.7565 94.7286 11.9043L91.499 13.365C91.411 13.3949 91.3654 13.4389 91.3654 13.4986C91.3654 13.5584 91.4094 13.6024 91.499 13.6323L94.7286 15.093C95.1421 15.2691 95.4157 15.5505 95.5477 15.9342C95.6814 16.3178 95.6295 16.7015 95.3937 17.0851C95.1861 17.4688 94.8842 17.6983 94.4864 17.7706C94.0871 17.8445 93.7113 17.7628 93.3575 17.5285L90.4817 15.4043C90.3937 15.3461 90.3182 15.3304 90.26 15.3603C90.2003 15.3901 90.1861 15.4483 90.216 15.5379L90.6138 19.0332C90.6735 19.4751 90.5635 19.8446 90.2836 20.1386C90.0006 20.431 89.6389 20.5788 89.1971 20.5788Z" fill="#67ACFF"/>
</svg>
