<svg width="26" height="23" viewBox="0 0 26 23" fill="none" xmlns="http://www.w3.org/2000/svg">
<path d="M12.9296 21.9834C12.9296 21.9834 1.01657 15.3122 1.01657 7.21134C1.01657 5.77926 1.51274 4.39142 2.42066 3.28393C3.32858 2.17645 4.59217 1.41774 5.99644 1.13688C7.4007 0.856029 8.8589 1.07038 10.1229 1.74348C11.387 2.41657 12.3788 3.50682 12.9296 4.82874V4.82874C13.4804 3.50682 14.4721 2.41657 15.7362 1.74348C17.0002 1.07038 18.4584 0.856029 19.8627 1.13688C21.2669 1.41774 22.5305 2.17645 23.4385 3.28393C24.3464 4.39142 24.8425 5.77926 24.8425 7.21134C24.8425 15.3122 12.9296 21.9834 12.9296 21.9834Z" stroke="white" stroke-width="2" stroke-linecap="round" stroke-linejoin="round"/>
</svg>
