<svg width="26" height="25" viewBox="0 0 26 25" fill="none" xmlns="http://www.w3.org/2000/svg">
<path d="M12.5176 17.5C15.2833 17.5 17.5254 15.2614 17.5254 12.5C17.5254 9.73858 15.2833 7.5 12.5176 7.5C9.75184 7.5 7.50977 9.73858 7.50977 12.5C7.50977 15.2614 9.75184 17.5 12.5176 17.5Z" stroke="black" stroke-width="2" stroke-miterlimit="10"/>
<path d="M18.0266 1H7.00937C3.69049 1 1 3.68629 1 7V18C1 21.3137 3.69049 24 7.00937 24H18.0266C21.3454 24 24.0359 21.3137 24.0359 18V7C24.0359 3.68629 21.3454 1 18.0266 1Z" stroke="black" stroke-width="2" stroke-linecap="round" stroke-linejoin="round"/>
<path d="M19.0277 7.5C19.8575 7.5 20.5301 6.82843 20.5301 6C20.5301 5.17157 19.8575 4.5 19.0277 4.5C18.198 4.5 17.5254 5.17157 17.5254 6C17.5254 6.82843 18.198 7.5 19.0277 7.5Z" fill="black"/>
</svg>
